<svg width="139" height="96" fill="none" xmlns="http://www.w3.org/2000/svg"><path d="M56.683 4.468a1 1 0 0 0 1.273.615l6.606-2.303a15 15 0 0 1 9.875 0l6.607 2.303a1 1 0 0 0 1.273-.615l11.324 3.947a1 1 0 0 0 .615 1.274l13.212 4.605a1 1 0 0 0 1.274-.615l11.323 3.947a1 1 0 0 0 .615 1.274l6.606 2.303c1.49.519 2.858 1.257 4.073 2.17a1 1 0 0 0 1.381-.174 16.028 16.028 0 0 1 4.519 6.361c-.507.18-.783.731-.619 1.247.462 1.448.709 2.982.709 4.56v6.316a1 1 0 0 0 1 1v10.634a1 1 0 0 0-1 1v6.316c0 1.578-.247 3.112-.709 4.56a1.001 1.001 0 0 0 .619 1.246 16.028 16.028 0 0 1-4.519 6.362 1 1 0 0 0-1.381-.174 14.982 14.982 0 0 1-4.073 2.17L120.68 77.1a1 1 0 0 0-.615 1.274l-11.323 3.947a1 1 0 0 0-1.274-.615L94.256 86.31a1 1 0 0 0-.615 1.274l-11.324 3.947a1 1 0 0 0-1.273-.615l-6.606 2.303a15 15 0 0 1-9.875 0l-6.607-2.303a1 1 0 0 0-1.273.615l-11.324-3.947a1 1 0 0 0-.615-1.274l-13.212-4.605a1 1 0 0 0-1.273.615l-11.324-3.947a1 1 0 0 0-.615-1.274l-6.607-2.303a14.981 14.981 0 0 1-4.072-2.17 1 1 0 0 0-1.38.174 16.026 16.026 0 0 1-4.52-6.362 1 1 0 0 0 .619-1.246 14.98 14.98 0 0 1-.709-4.56v-6.316a1 1 0 0 0-1-1V42.683a1 1 0 0 0 1-1v-6.316c0-1.578.247-3.112.709-4.56a1 1 0 0 0-.62-1.246 16.026 16.026 0 0 1 4.52-6.362 1 1 0 0 0 1.381.174 14.981 14.981 0 0 1 4.072-2.17L18.32 18.9a1 1 0 0 0 .615-1.273l11.324-3.948a1 1 0 0 0 1.273.615L44.744 9.69a1 1 0 0 0 .615-1.274l11.324-3.947z" fill="#AD00FF" fill-opacity=".1" stroke="#AD00FF" stroke-width="2" stroke-linecap="round" stroke-dasharray="16 16"/></svg>