<svg width="40" height="40" fill="none" xmlns="http://www.w3.org/2000/svg"><rect width="40" height="40" rx="20" fill="#000" fill-opacity=".5"/><path d="M30 27v3H10v-3c0-.55.45-1 1-1h18c.55 0 1 .45 1 1z" fill="#fff" stroke="#fff" stroke-width="1.5" stroke-miterlimit="10" stroke-linecap="round" stroke-linejoin="round"/><path d="M15 19h-2v7h2v-7zM19 19h-2v7h2v-7zM23 19h-2v7h2v-7zM27 19h-2v7h2v-7zM31 30.75H9c-.41 0-.75-.34-.75-.75s.34-.75.75-.75h22c.41 0 .75.34.75.75s-.34.75-.75.75zM29.37 13.75l-9-3.6c-.2-.08-.54-.08-.74 0l-9 3.6c-.35.14-.63.55-.63.93V18c0 .55.45 1 1 1h18c.55 0 1-.45 1-1v-3.32c0-.38-.28-.79-.63-.93zM20 16.5c-.83 0-1.5-.67-1.5-1.5s.67-1.5 1.5-1.5 1.5.67 1.5 1.5-.67 1.5-1.5 1.5z" fill="#fff"/></svg>