<svg width="16" height="16" fill="none" xmlns="http://www.w3.org/2000/svg"><path d="m13.906 5.58-4.62-3.693c-.713-.573-1.866-.573-2.573-.007l-4.62 3.7c-.52.414-.853 1.287-.74 1.94l.887 5.307c.16.947 1.067 1.713 2.027 1.713h7.466c.954 0 1.867-.773 2.027-1.713l.886-5.307c.107-.653-.226-1.526-.74-1.94zm-5.433 5.887c-.133.133-.3.2-.473.2a.664.664 0 0 1-.473-1.133c.26-.26.686-.26.946 0 .26.253.26.673 0 .933zm1.3-1.533a.5.5 0 0 1-.707.013c-.646-.62-1.486-.62-2.14 0a.497.497 0 0 1-.706-.013.497.497 0 0 1 .013-.707c1.034-.993 2.48-.993 3.52 0a.491.491 0 0 1 .02.707zm1.414-1.414c-.1.1-.227.154-.36.154a.489.489 0 0 1-.347-.14A3.935 3.935 0 0 0 9.44 7.8a3.262 3.262 0 0 0-2.88 0c-.373.18-.72.427-1.04.734a.497.497 0 0 1-.707-.007.503.503 0 0 1 .007-.707 4.845 4.845 0 0 1 1.307-.92 4.237 4.237 0 0 1 3.74 0c.473.227.913.534 1.306.92a.49.49 0 0 1 .014.7z" fill="#fff"/></svg>